<svg xmlns="http://www.w3.org/2000/svg" xmlns:xlink="http://www.w3.org/1999/xlink" width="1080" zoomAndPan="magnify" viewBox="0 0 810 809.999993" height="1080" preserveAspectRatio="xMidYMid meet" version="1.0"><defs><g/></defs><g fill="#000000" fill-opacity="1"><g transform="translate(65.984131, 367.380647)"><g><path d="M 61.78125 -63.3125 L 61.78125 0 L 59.96875 0 L 59.96875 -31.296875 L 13.84375 -31.296875 L 13.84375 0 L 12.03125 0 L 12.03125 -63.3125 L 13.84375 -63.3125 L 13.84375 -33.015625 L 59.96875 -33.015625 L 59.96875 -63.3125 Z M 61.78125 -63.3125 "/></g></g></g><g fill="#000000" fill-opacity="1"><g transform="translate(145.124113, 367.380647)"><g><path d="M 48.21875 -23.421875 L 6.609375 -23.421875 C 6.609375 -19.203125 7.539062 -15.421875 9.40625 -12.078125 C 11.28125 -8.734375 13.859375 -6.125 17.140625 -4.25 C 20.429688 -2.382812 24.125 -1.453125 28.21875 -1.453125 C 31.414062 -1.453125 34.414062 -2.066406 37.21875 -3.296875 C 40.019531 -4.535156 42.328125 -6.332031 44.140625 -8.6875 L 45.40625 -7.421875 C 43.351562 -4.941406 40.816406 -3.039062 37.796875 -1.71875 C 34.785156 -0.394531 31.59375 0.265625 28.21875 0.265625 C 23.757812 0.265625 19.765625 -0.738281 16.234375 -2.75 C 12.703125 -4.769531 9.925781 -7.585938 7.90625 -11.203125 C 5.894531 -14.828125 4.890625 -18.898438 4.890625 -23.421875 C 4.890625 -27.953125 5.820312 -32.007812 7.6875 -35.59375 C 9.5625 -39.175781 12.140625 -41.976562 15.421875 -44 C 18.710938 -46.019531 22.40625 -47.03125 26.5 -47.03125 C 30.539062 -47.03125 34.21875 -46.035156 37.53125 -44.046875 C 40.851562 -42.054688 43.460938 -39.3125 45.359375 -35.8125 C 47.265625 -32.320312 48.21875 -28.34375 48.21875 -23.875 Z M 26.5 -45.3125 C 22.882812 -45.3125 19.597656 -44.4375 16.640625 -42.6875 C 13.691406 -40.945312 11.328125 -38.535156 9.546875 -35.453125 C 7.765625 -32.378906 6.785156 -28.941406 6.609375 -25.140625 L 46.5 -25.140625 C 46.3125 -28.941406 45.3125 -32.378906 43.5 -35.453125 C 41.695312 -38.535156 39.316406 -40.945312 36.359375 -42.6875 C 33.410156 -44.4375 30.125 -45.3125 26.5 -45.3125 Z M 26.5 -45.3125 "/></g></g></g><g fill="#000000" fill-opacity="1"><g transform="translate(203.552121, 367.380647)"><g><path d="M 12.21875 -34.640625 C 13.539062 -38.617188 15.769531 -41.675781 18.90625 -43.8125 C 22.039062 -45.957031 25.929688 -47.03125 30.578125 -47.03125 L 30.578125 -45.234375 L 30.03125 -45.234375 C 24.425781 -45.234375 20.054688 -43.4375 16.921875 -39.84375 C 13.785156 -36.257812 12.21875 -31.359375 12.21875 -25.140625 L 12.21875 0 L 10.40625 0 L 10.40625 -46.765625 L 12.21875 -46.765625 Z M 12.21875 -34.640625 "/></g></g></g><g fill="#000000" fill-opacity="1"><g transform="translate(243.529285, 367.380647)"><g><path d="M 10.40625 -46.765625 L 12.21875 -46.765625 L 12.21875 0 L 10.40625 0 Z M 11.296875 -59.703125 C 10.640625 -59.703125 10.082031 -59.941406 9.625 -60.421875 C 9.175781 -60.898438 8.953125 -61.441406 8.953125 -62.046875 C 8.953125 -62.710938 9.175781 -63.269531 9.625 -63.71875 C 10.082031 -64.175781 10.640625 -64.40625 11.296875 -64.40625 C 11.898438 -64.40625 12.441406 -64.175781 12.921875 -63.71875 C 13.410156 -63.269531 13.65625 -62.710938 13.65625 -62.046875 C 13.65625 -61.441406 13.410156 -60.898438 12.921875 -60.421875 C 12.441406 -59.941406 11.898438 -59.703125 11.296875 -59.703125 Z M 11.296875 -59.703125 "/></g></g></g><g fill="#000000" fill-opacity="1"><g transform="translate(271.477209, 367.380647)"><g><path d="M 31.5625 -3.078125 C 30.539062 -1.992188 29.203125 -1.164062 27.546875 -0.59375 C 25.890625 -0.0195312 24.1875 0.265625 22.4375 0.265625 C 18.8125 0.265625 16.019531 -0.769531 14.0625 -2.84375 C 12.101562 -4.925781 11.125 -7.71875 11.125 -11.21875 L 11.125 -45.046875 L 2.078125 -45.046875 L 2.078125 -46.765625 L 11.125 -46.765625 L 11.125 -56.984375 L 12.9375 -56.984375 L 12.9375 -46.765625 L 28.765625 -46.765625 L 28.765625 -45.046875 L 12.9375 -45.046875 L 12.9375 -11.671875 C 12.9375 -8.347656 13.75 -5.8125 15.375 -4.0625 C 17 -2.320312 19.378906 -1.453125 22.515625 -1.453125 C 25.648438 -1.453125 28.242188 -2.414062 30.296875 -4.34375 Z M 31.5625 -3.078125 "/></g></g></g><g fill="#000000" fill-opacity="1"><g transform="translate(311.906597, 367.380647)"><g><path d="M 25.328125 -47.03125 C 30.753906 -47.03125 34.898438 -45.628906 37.765625 -42.828125 C 40.628906 -40.023438 42.0625 -35.96875 42.0625 -30.65625 L 42.0625 0 L 40.25 0 L 40.25 -9.953125 C 38.738281 -6.753906 36.460938 -4.25 33.421875 -2.4375 C 30.378906 -0.632812 26.71875 0.265625 22.4375 0.265625 C 17.25 0.265625 13.191406 -0.921875 10.265625 -3.296875 C 7.335938 -5.679688 5.875 -8.863281 5.875 -12.84375 C 5.875 -16.582031 7.1875 -19.613281 9.8125 -21.9375 C 12.4375 -24.257812 16.671875 -25.421875 22.515625 -25.421875 L 40.25 -25.421875 L 40.25 -30.578125 C 40.25 -35.460938 39 -39.140625 36.5 -41.609375 C 34 -44.078125 30.304688 -45.3125 25.421875 -45.3125 C 22.046875 -45.3125 18.894531 -44.722656 15.96875 -43.546875 C 13.039062 -42.378906 10.519531 -40.796875 8.40625 -38.796875 L 7.140625 -40.078125 C 9.378906 -42.242188 12.09375 -43.941406 15.28125 -45.171875 C 18.476562 -46.410156 21.828125 -47.03125 25.328125 -47.03125 Z M 22.4375 -1.453125 C 31.113281 -1.453125 37.050781 -5.429688 40.25 -13.390625 L 40.25 -23.703125 L 22.4375 -23.703125 C 17.363281 -23.703125 13.632812 -22.734375 11.25 -20.796875 C 8.875 -18.867188 7.6875 -16.25 7.6875 -12.9375 C 7.6875 -9.375 8.984375 -6.566406 11.578125 -4.515625 C 14.171875 -2.472656 17.789062 -1.453125 22.4375 -1.453125 Z M 22.4375 -1.453125 "/></g></g></g><g fill="#000000" fill-opacity="1"><g transform="translate(369.158822, 367.380647)"><g><path d="M 50.828125 -46.765625 L 50.828125 -4.15625 C 50.828125 3.320312 49.046875 8.851562 45.484375 12.4375 C 41.929688 16.019531 36.507812 17.8125 29.21875 17.8125 C 24.9375 17.8125 20.96875 17.117188 17.3125 15.734375 C 13.664062 14.347656 10.726562 12.453125 8.5 10.046875 L 9.765625 8.78125 C 12.179688 11.125 15.046875 12.925781 18.359375 14.1875 C 21.679688 15.457031 25.300781 16.09375 29.21875 16.09375 C 35.96875 16.09375 40.957031 14.476562 44.1875 11.25 C 47.414062 8.03125 49.03125 2.984375 49.03125 -3.890625 L 49.03125 -15.640625 C 47.394531 -11.359375 44.691406 -7.9375 40.921875 -5.375 C 37.160156 -2.8125 32.804688 -1.53125 27.859375 -1.53125 C 23.515625 -1.53125 19.59375 -2.507812 16.09375 -4.46875 C 12.601562 -6.4375 9.863281 -9.148438 7.875 -12.609375 C 5.882812 -16.078125 4.890625 -19.984375 4.890625 -24.328125 C 4.890625 -28.671875 5.882812 -32.578125 7.875 -36.046875 C 9.863281 -39.515625 12.601562 -42.210938 16.09375 -44.140625 C 19.59375 -46.066406 23.515625 -47.03125 27.859375 -47.03125 C 32.804688 -47.03125 37.160156 -45.765625 40.921875 -43.234375 C 44.691406 -40.703125 47.394531 -37.328125 49.03125 -33.109375 L 49.03125 -46.765625 Z M 27.859375 -3.25 C 31.898438 -3.25 35.53125 -4.140625 38.75 -5.921875 C 41.976562 -7.703125 44.5 -10.203125 46.3125 -13.421875 C 48.125 -16.648438 49.03125 -20.285156 49.03125 -24.328125 C 49.03125 -28.367188 48.125 -31.988281 46.3125 -35.1875 C 44.5 -38.382812 41.976562 -40.867188 38.75 -42.640625 C 35.53125 -44.421875 31.898438 -45.3125 27.859375 -45.3125 C 23.816406 -45.3125 20.179688 -44.421875 16.953125 -42.640625 C 13.734375 -40.867188 11.21875 -38.382812 9.40625 -35.1875 C 7.59375 -31.988281 6.6875 -28.367188 6.6875 -24.328125 C 6.6875 -20.285156 7.59375 -16.648438 9.40625 -13.421875 C 11.21875 -10.203125 13.734375 -7.703125 16.953125 -5.921875 C 20.179688 -4.140625 23.816406 -3.25 27.859375 -3.25 Z M 27.859375 -3.25 "/></g></g></g><g fill="#000000" fill-opacity="1"><g transform="translate(435.726903, 367.380647)"><g><path d="M 48.21875 -23.421875 L 6.609375 -23.421875 C 6.609375 -19.203125 7.539062 -15.421875 9.40625 -12.078125 C 11.28125 -8.734375 13.859375 -6.125 17.140625 -4.25 C 20.429688 -2.382812 24.125 -1.453125 28.21875 -1.453125 C 31.414062 -1.453125 34.414062 -2.066406 37.21875 -3.296875 C 40.019531 -4.535156 42.328125 -6.332031 44.140625 -8.6875 L 45.40625 -7.421875 C 43.351562 -4.941406 40.816406 -3.039062 37.796875 -1.71875 C 34.785156 -0.394531 31.59375 0.265625 28.21875 0.265625 C 23.757812 0.265625 19.765625 -0.738281 16.234375 -2.75 C 12.703125 -4.769531 9.925781 -7.585938 7.90625 -11.203125 C 5.894531 -14.828125 4.890625 -18.898438 4.890625 -23.421875 C 4.890625 -27.953125 5.820312 -32.007812 7.6875 -35.59375 C 9.5625 -39.175781 12.140625 -41.976562 15.421875 -44 C 18.710938 -46.019531 22.40625 -47.03125 26.5 -47.03125 C 30.539062 -47.03125 34.21875 -46.035156 37.53125 -44.046875 C 40.851562 -42.054688 43.460938 -39.3125 45.359375 -35.8125 C 47.265625 -32.320312 48.21875 -28.34375 48.21875 -23.875 Z M 26.5 -45.3125 C 22.882812 -45.3125 19.597656 -44.4375 16.640625 -42.6875 C 13.691406 -40.945312 11.328125 -38.535156 9.546875 -35.453125 C 7.765625 -32.378906 6.785156 -28.941406 6.609375 -25.140625 L 46.5 -25.140625 C 46.3125 -28.941406 45.3125 -32.378906 43.5 -35.453125 C 41.695312 -38.535156 39.316406 -40.945312 36.359375 -42.6875 C 33.410156 -44.4375 30.125 -45.3125 26.5 -45.3125 Z M 26.5 -45.3125 "/></g></g></g><g fill="#000000" fill-opacity="1"><g transform="translate(67.628338, 465.835513)"><g><path d="M 55.921875 -56 L 55.921875 0 L 50.078125 0 L 50.078125 -25.84375 L 15.046875 -25.84375 L 15.046875 0 L 9.125 0 L 9.125 -56 L 15.046875 -56 L 15.046875 -31.046875 L 50.078125 -31.046875 L 50.078125 -56 Z M 55.921875 -56 "/></g></g></g><g fill="#000000" fill-opacity="1"><g transform="translate(132.662018, 465.835513)"><g><path d="M 7.921875 -42.078125 L 13.59375 -42.078125 L 13.59375 0 L 7.921875 0 Z M 10.796875 -51.28125 C 9.617188 -51.28125 8.628906 -51.679688 7.828125 -52.484375 C 7.035156 -53.285156 6.640625 -54.242188 6.640625 -55.359375 C 6.640625 -56.421875 7.035156 -57.351562 7.828125 -58.15625 C 8.628906 -58.957031 9.617188 -59.359375 10.796875 -59.359375 C 11.972656 -59.359375 12.957031 -58.972656 13.75 -58.203125 C 14.550781 -57.429688 14.953125 -56.507812 14.953125 -55.4375 C 14.953125 -54.269531 14.550781 -53.285156 13.75 -52.484375 C 12.957031 -51.679688 11.972656 -51.28125 10.796875 -51.28125 Z M 10.796875 -51.28125 "/></g></g></g><g fill="#000000" fill-opacity="1"><g transform="translate(154.179931, 465.835513)"><g><path d="M 46.3125 -59.359375 L 46.3125 0 L 40.875 0 L 40.875 -8.3125 C 39.164062 -5.488281 36.910156 -3.328125 34.109375 -1.828125 C 31.316406 -0.335938 28.160156 0.40625 24.640625 0.40625 C 20.691406 0.40625 17.117188 -0.5 13.921875 -2.3125 C 10.722656 -4.132812 8.21875 -6.671875 6.40625 -9.921875 C 4.59375 -13.171875 3.6875 -16.878906 3.6875 -21.046875 C 3.6875 -25.203125 4.59375 -28.90625 6.40625 -32.15625 C 8.21875 -35.414062 10.722656 -37.9375 13.921875 -39.71875 C 17.117188 -41.507812 20.691406 -42.40625 24.640625 -42.40625 C 28.054688 -42.40625 31.132812 -41.695312 33.875 -40.28125 C 36.625 -38.863281 38.878906 -36.796875 40.640625 -34.078125 L 40.640625 -59.359375 Z M 25.125 -4.640625 C 28.050781 -4.640625 30.703125 -5.316406 33.078125 -6.671875 C 35.453125 -8.035156 37.316406 -9.96875 38.671875 -12.46875 C 40.035156 -14.976562 40.71875 -17.835938 40.71875 -21.046875 C 40.71875 -24.242188 40.035156 -27.09375 38.671875 -29.59375 C 37.316406 -32.101562 35.453125 -34.035156 33.078125 -35.390625 C 30.703125 -36.753906 28.050781 -37.4375 25.125 -37.4375 C 22.132812 -37.4375 19.453125 -36.753906 17.078125 -35.390625 C 14.703125 -34.035156 12.832031 -32.101562 11.46875 -29.59375 C 10.113281 -27.09375 9.4375 -24.242188 9.4375 -21.046875 C 9.4375 -17.835938 10.113281 -14.976562 11.46875 -12.46875 C 12.832031 -9.96875 14.703125 -8.035156 17.078125 -6.671875 C 19.453125 -5.316406 22.132812 -4.640625 25.125 -4.640625 Z M 25.125 -4.640625 "/></g></g></g><g fill="#000000" fill-opacity="1"><g transform="translate(208.414658, 465.835513)"><g><path d="M 44.5625 -19.28125 L 9.359375 -19.28125 C 9.679688 -14.90625 11.359375 -11.367188 14.390625 -8.671875 C 17.429688 -5.984375 21.273438 -4.640625 25.921875 -4.640625 C 28.535156 -4.640625 30.9375 -5.101562 33.125 -6.03125 C 35.3125 -6.96875 37.203125 -8.34375 38.796875 -10.15625 L 42 -6.484375 C 40.132812 -4.242188 37.800781 -2.535156 35 -1.359375 C 32.195312 -0.179688 29.117188 0.40625 25.765625 0.40625 C 21.441406 0.40625 17.613281 -0.515625 14.28125 -2.359375 C 10.945312 -4.203125 8.347656 -6.75 6.484375 -10 C 4.617188 -13.25 3.6875 -16.929688 3.6875 -21.046875 C 3.6875 -25.148438 4.578125 -28.828125 6.359375 -32.078125 C 8.148438 -35.328125 10.601562 -37.859375 13.71875 -39.671875 C 16.84375 -41.492188 20.347656 -42.40625 24.234375 -42.40625 C 28.128906 -42.40625 31.625 -41.492188 34.71875 -39.671875 C 37.8125 -37.859375 40.238281 -35.335938 42 -32.109375 C 43.757812 -28.890625 44.640625 -25.203125 44.640625 -21.046875 Z M 24.234375 -37.515625 C 20.179688 -37.515625 16.78125 -36.222656 14.03125 -33.640625 C 11.289062 -31.054688 9.734375 -27.679688 9.359375 -23.515625 L 39.203125 -23.515625 C 38.828125 -27.679688 37.265625 -31.054688 34.515625 -33.640625 C 31.773438 -36.222656 28.347656 -37.515625 24.234375 -37.515625 Z M 24.234375 -37.515625 "/></g></g></g><g fill="#000000" fill-opacity="1"><g transform="translate(256.729963, 465.835513)"><g><path d="M 22.640625 -42.40625 C 28.128906 -42.40625 32.34375 -41.03125 35.28125 -38.28125 C 38.21875 -35.53125 39.6875 -31.460938 39.6875 -26.078125 L 39.6875 0 L 34.234375 0 L 34.234375 -6.5625 C 32.953125 -4.375 31.070312 -2.664062 28.59375 -1.4375 C 26.113281 -0.207031 23.171875 0.40625 19.765625 0.40625 C 15.066406 0.40625 11.332031 -0.710938 8.5625 -2.953125 C 5.789062 -5.191406 4.40625 -8.15625 4.40625 -11.84375 C 4.40625 -15.414062 5.695312 -18.296875 8.28125 -20.484375 C 10.863281 -22.671875 14.984375 -23.765625 20.640625 -23.765625 L 34 -23.765625 L 34 -26.3125 C 34 -29.945312 32.984375 -32.707031 30.953125 -34.59375 C 28.929688 -36.488281 25.972656 -37.4375 22.078125 -37.4375 C 19.410156 -37.4375 16.847656 -36.992188 14.390625 -36.109375 C 11.941406 -35.234375 9.835938 -34.023438 8.078125 -32.484375 L 5.515625 -36.71875 C 7.648438 -38.53125 10.210938 -39.929688 13.203125 -40.921875 C 16.191406 -41.910156 19.335938 -42.40625 22.640625 -42.40625 Z M 20.640625 -4.078125 C 23.835938 -4.078125 26.582031 -4.8125 28.875 -6.28125 C 31.164062 -7.75 32.875 -9.867188 34 -12.640625 L 34 -19.515625 L 20.796875 -19.515625 C 13.597656 -19.515625 10 -17.007812 10 -12 C 10 -9.539062 10.929688 -7.601562 12.796875 -6.1875 C 14.660156 -4.78125 17.273438 -4.078125 20.640625 -4.078125 Z M 20.640625 -4.078125 "/></g></g></g><g fill="#000000" fill-opacity="1"><g transform="translate(303.925384, 465.835513)"><g><path d="M 69.6875 -42.078125 L 53.765625 0 L 48.40625 0 L 35.125 -34.484375 L 21.84375 0 L 16.484375 0 L 0.640625 -42.078125 L 6.078125 -42.078125 L 19.28125 -6.3125 L 32.796875 -42.078125 L 37.6875 -42.078125 L 51.125 -6.3125 L 64.484375 -42.078125 Z M 69.6875 -42.078125 "/></g></g></g><g fill="#000000" fill-opacity="1"><g transform="translate(374.238567, 465.835513)"><g><path d="M 22.640625 -42.40625 C 28.128906 -42.40625 32.34375 -41.03125 35.28125 -38.28125 C 38.21875 -35.53125 39.6875 -31.460938 39.6875 -26.078125 L 39.6875 0 L 34.234375 0 L 34.234375 -6.5625 C 32.953125 -4.375 31.070312 -2.664062 28.59375 -1.4375 C 26.113281 -0.207031 23.171875 0.40625 19.765625 0.40625 C 15.066406 0.40625 11.332031 -0.710938 8.5625 -2.953125 C 5.789062 -5.191406 4.40625 -8.15625 4.40625 -11.84375 C 4.40625 -15.414062 5.695312 -18.296875 8.28125 -20.484375 C 10.863281 -22.671875 14.984375 -23.765625 20.640625 -23.765625 L 34 -23.765625 L 34 -26.3125 C 34 -29.945312 32.984375 -32.707031 30.953125 -34.59375 C 28.929688 -36.488281 25.972656 -37.4375 22.078125 -37.4375 C 19.410156 -37.4375 16.847656 -36.992188 14.390625 -36.109375 C 11.941406 -35.234375 9.835938 -34.023438 8.078125 -32.484375 L 5.515625 -36.71875 C 7.648438 -38.53125 10.210938 -39.929688 13.203125 -40.921875 C 16.191406 -41.910156 19.335938 -42.40625 22.640625 -42.40625 Z M 20.640625 -4.078125 C 23.835938 -4.078125 26.582031 -4.8125 28.875 -6.28125 C 31.164062 -7.75 32.875 -9.867188 34 -12.640625 L 34 -19.515625 L 20.796875 -19.515625 C 13.597656 -19.515625 10 -17.007812 10 -12 C 10 -9.539062 10.929688 -7.601562 12.796875 -6.1875 C 14.660156 -4.78125 17.273438 -4.078125 20.640625 -4.078125 Z M 20.640625 -4.078125 "/></g></g></g><g fill="#000000" fill-opacity="1"><g transform="translate(421.433999, 465.835513)"><g><path d="M 43.28125 -42.078125 L 22.234375 5.046875 C 20.535156 8.984375 18.5625 11.78125 16.3125 13.4375 C 14.070312 15.09375 11.378906 15.921875 8.234375 15.921875 C 6.210938 15.921875 4.320312 15.597656 2.5625 14.953125 C 0.800781 14.316406 -0.71875 13.359375 -2 12.078125 L 0.640625 7.84375 C 2.773438 9.976562 5.332031 11.046875 8.3125 11.046875 C 10.238281 11.046875 11.878906 10.507812 13.234375 9.4375 C 14.597656 8.375 15.867188 6.5625 17.046875 4 L 18.875 -0.078125 L 0.078125 -42.078125 L 6 -42.078125 L 21.84375 -6.3125 L 37.6875 -42.078125 Z M 43.28125 -42.078125 "/></g></g></g><g fill="#000000" fill-opacity="1"><g transform="translate(464.789801, 465.835513)"><g><path d="M 19.203125 0.40625 C 15.785156 0.40625 12.515625 -0.0859375 9.390625 -1.078125 C 6.273438 -2.066406 3.835938 -3.304688 2.078125 -4.796875 L 4.640625 -9.28125 C 6.398438 -7.894531 8.613281 -6.757812 11.28125 -5.875 C 13.945312 -5 16.71875 -4.5625 19.59375 -4.5625 C 23.4375 -4.5625 26.273438 -5.160156 28.109375 -6.359375 C 29.953125 -7.554688 30.875 -9.25 30.875 -11.4375 C 30.875 -12.988281 30.367188 -14.203125 29.359375 -15.078125 C 28.347656 -15.960938 27.066406 -16.628906 25.515625 -17.078125 C 23.972656 -17.535156 21.921875 -17.976562 19.359375 -18.40625 C 15.941406 -19.039062 13.191406 -19.691406 11.109375 -20.359375 C 9.035156 -21.023438 7.265625 -22.15625 5.796875 -23.75 C 4.328125 -25.351562 3.59375 -27.570312 3.59375 -30.40625 C 3.59375 -33.925781 5.0625 -36.804688 8 -39.046875 C 10.9375 -41.285156 15.015625 -42.40625 20.234375 -42.40625 C 22.953125 -42.40625 25.671875 -42.039062 28.390625 -41.3125 C 31.117188 -40.59375 33.363281 -39.648438 35.125 -38.484375 L 32.640625 -33.921875 C 29.171875 -36.316406 25.035156 -37.515625 20.234375 -37.515625 C 16.609375 -37.515625 13.875 -36.875 12.03125 -35.59375 C 10.195312 -34.320312 9.28125 -32.644531 9.28125 -30.5625 C 9.28125 -28.957031 9.800781 -27.675781 10.84375 -26.71875 C 11.882812 -25.757812 13.175781 -25.050781 14.71875 -24.59375 C 16.269531 -24.144531 18.40625 -23.679688 21.125 -23.203125 C 24.476562 -22.554688 27.164062 -21.910156 29.1875 -21.265625 C 31.21875 -20.628906 32.953125 -19.539062 34.390625 -18 C 35.835938 -16.457031 36.5625 -14.320312 36.5625 -11.59375 C 36.5625 -7.914062 35.023438 -4.992188 31.953125 -2.828125 C 28.890625 -0.671875 24.640625 0.40625 19.203125 0.40625 Z M 19.203125 0.40625 "/></g></g></g><path stroke-linecap="round" transform="matrix(0, 0.75, -0.75, 0, 528.246529, 321.687426)" fill="none" stroke-linejoin="miter" d="M 2.000098 2.00058 L 258.552195 2.00058 " stroke="#000000" stroke-width="4" stroke-opacity="1" stroke-miterlimit="4"/><g fill="#49443a" fill-opacity="1"><g transform="translate(562.731479, 467.975492)"><g><path d="M 2.125 -13.078125 L 3.515625 -13.078125 L 3.515625 0 L 2.125 0 Z M 2.125 -13.078125 "/></g></g></g><g fill="#49443a" fill-opacity="1"><g transform="translate(571.12868, 467.975492)"><g><path d="M 14.09375 -9.890625 C 15.332031 -9.890625 16.300781 -9.535156 17 -8.828125 C 17.707031 -8.117188 18.0625 -7.070312 18.0625 -5.6875 L 18.0625 0 L 16.734375 0 L 16.734375 -5.5625 C 16.734375 -6.582031 16.484375 -7.359375 15.984375 -7.890625 C 15.492188 -8.429688 14.800781 -8.703125 13.90625 -8.703125 C 12.882812 -8.703125 12.082031 -8.382812 11.5 -7.75 C 10.914062 -7.125 10.625 -6.257812 10.625 -5.15625 L 10.625 0 L 9.296875 0 L 9.296875 -5.5625 C 9.296875 -6.582031 9.050781 -7.359375 8.5625 -7.890625 C 8.070312 -8.429688 7.367188 -8.703125 6.453125 -8.703125 C 5.453125 -8.703125 4.65625 -8.382812 4.0625 -7.75 C 3.46875 -7.125 3.171875 -6.257812 3.171875 -5.15625 L 3.171875 0 L 1.84375 0 L 1.84375 -9.828125 L 3.125 -9.828125 L 3.125 -8.03125 C 3.46875 -8.625 3.953125 -9.082031 4.578125 -9.40625 C 5.203125 -9.726562 5.914062 -9.890625 6.71875 -9.890625 C 7.539062 -9.890625 8.253906 -9.710938 8.859375 -9.359375 C 9.460938 -9.015625 9.914062 -8.503906 10.21875 -7.828125 C 10.570312 -8.472656 11.085938 -8.976562 11.765625 -9.34375 C 12.453125 -9.707031 13.226562 -9.890625 14.09375 -9.890625 Z M 14.09375 -9.890625 "/></g></g></g><g fill="#49443a" fill-opacity="1"><g transform="translate(593.68594, 467.975492)"><g><path d="M 14.09375 -9.890625 C 15.332031 -9.890625 16.300781 -9.535156 17 -8.828125 C 17.707031 -8.117188 18.0625 -7.070312 18.0625 -5.6875 L 18.0625 0 L 16.734375 0 L 16.734375 -5.5625 C 16.734375 -6.582031 16.484375 -7.359375 15.984375 -7.890625 C 15.492188 -8.429688 14.800781 -8.703125 13.90625 -8.703125 C 12.882812 -8.703125 12.082031 -8.382812 11.5 -7.75 C 10.914062 -7.125 10.625 -6.257812 10.625 -5.15625 L 10.625 0 L 9.296875 0 L 9.296875 -5.5625 C 9.296875 -6.582031 9.050781 -7.359375 8.5625 -7.890625 C 8.070312 -8.429688 7.367188 -8.703125 6.453125 -8.703125 C 5.453125 -8.703125 4.65625 -8.382812 4.0625 -7.75 C 3.46875 -7.125 3.171875 -6.257812 3.171875 -5.15625 L 3.171875 0 L 1.84375 0 L 1.84375 -9.828125 L 3.125 -9.828125 L 3.125 -8.03125 C 3.46875 -8.625 3.953125 -9.082031 4.578125 -9.40625 C 5.203125 -9.726562 5.914062 -9.890625 6.71875 -9.890625 C 7.539062 -9.890625 8.253906 -9.710938 8.859375 -9.359375 C 9.460938 -9.015625 9.914062 -8.503906 10.21875 -7.828125 C 10.570312 -8.472656 11.085938 -8.976562 11.765625 -9.34375 C 12.453125 -9.707031 13.226562 -9.890625 14.09375 -9.890625 Z M 14.09375 -9.890625 "/></g></g></g><g fill="#49443a" fill-opacity="1"><g transform="translate(616.243203, 467.975492)"><g><path d="M 5.859375 0.09375 C 4.910156 0.09375 4.054688 -0.117188 3.296875 -0.546875 C 2.546875 -0.972656 1.953125 -1.566406 1.515625 -2.328125 C 1.078125 -3.085938 0.859375 -3.945312 0.859375 -4.90625 C 0.859375 -5.863281 1.078125 -6.722656 1.515625 -7.484375 C 1.953125 -8.242188 2.546875 -8.832031 3.296875 -9.25 C 4.054688 -9.675781 4.910156 -9.890625 5.859375 -9.890625 C 6.804688 -9.890625 7.660156 -9.675781 8.421875 -9.25 C 9.179688 -8.832031 9.773438 -8.242188 10.203125 -7.484375 C 10.628906 -6.722656 10.84375 -5.863281 10.84375 -4.90625 C 10.84375 -3.945312 10.628906 -3.085938 10.203125 -2.328125 C 9.773438 -1.566406 9.179688 -0.972656 8.421875 -0.546875 C 7.660156 -0.117188 6.804688 0.09375 5.859375 0.09375 Z M 5.859375 -1.078125 C 6.554688 -1.078125 7.179688 -1.234375 7.734375 -1.546875 C 8.296875 -1.867188 8.726562 -2.320312 9.03125 -2.90625 C 9.34375 -3.5 9.5 -4.164062 9.5 -4.90625 C 9.5 -5.65625 9.34375 -6.320312 9.03125 -6.90625 C 8.726562 -7.488281 8.296875 -7.9375 7.734375 -8.25 C 7.179688 -8.570312 6.554688 -8.734375 5.859375 -8.734375 C 5.160156 -8.734375 4.535156 -8.570312 3.984375 -8.25 C 3.429688 -7.9375 2.992188 -7.488281 2.671875 -6.90625 C 2.359375 -6.320312 2.203125 -5.65625 2.203125 -4.90625 C 2.203125 -4.164062 2.359375 -3.5 2.671875 -2.90625 C 2.992188 -2.320312 3.429688 -1.867188 3.984375 -1.546875 C 4.535156 -1.234375 5.160156 -1.078125 5.859375 -1.078125 Z M 5.859375 -1.078125 "/></g></g></g><g fill="#49443a" fill-opacity="1"><g transform="translate(630.703665, 467.975492)"><g><path d="M 6.90625 -9.890625 C 7.832031 -9.890625 8.664062 -9.679688 9.40625 -9.265625 C 10.15625 -8.847656 10.738281 -8.257812 11.15625 -7.5 C 11.582031 -6.738281 11.796875 -5.875 11.796875 -4.90625 C 11.796875 -3.9375 11.582031 -3.070312 11.15625 -2.3125 C 10.738281 -1.550781 10.15625 -0.957031 9.40625 -0.53125 C 8.664062 -0.113281 7.832031 0.09375 6.90625 0.09375 C 6.082031 0.09375 5.34375 -0.078125 4.6875 -0.421875 C 4.039062 -0.773438 3.519531 -1.28125 3.125 -1.9375 L 3.125 0 L 1.84375 0 L 1.84375 -13.859375 L 3.171875 -13.859375 L 3.171875 -7.953125 C 3.585938 -8.585938 4.113281 -9.066406 4.75 -9.390625 C 5.394531 -9.722656 6.113281 -9.890625 6.90625 -9.890625 Z M 6.8125 -1.078125 C 7.5 -1.078125 8.117188 -1.234375 8.671875 -1.546875 C 9.234375 -1.867188 9.671875 -2.320312 9.984375 -2.90625 C 10.304688 -3.5 10.46875 -4.164062 10.46875 -4.90625 C 10.46875 -5.65625 10.304688 -6.320312 9.984375 -6.90625 C 9.671875 -7.488281 9.234375 -7.9375 8.671875 -8.25 C 8.117188 -8.570312 7.5 -8.734375 6.8125 -8.734375 C 6.113281 -8.734375 5.488281 -8.570312 4.9375 -8.25 C 4.382812 -7.9375 3.945312 -7.488281 3.625 -6.90625 C 3.3125 -6.320312 3.15625 -5.65625 3.15625 -4.90625 C 3.15625 -4.164062 3.3125 -3.5 3.625 -2.90625 C 3.945312 -2.320312 4.382812 -1.867188 4.9375 -1.546875 C 5.488281 -1.234375 6.113281 -1.078125 6.8125 -1.078125 Z M 6.8125 -1.078125 "/></g></g></g><g fill="#49443a" fill-opacity="1"><g transform="translate(646.1156, 467.975492)"><g><path d="M 1.84375 -9.828125 L 3.171875 -9.828125 L 3.171875 0 L 1.84375 0 Z M 2.515625 -11.96875 C 2.242188 -11.96875 2.015625 -12.0625 1.828125 -12.25 C 1.640625 -12.4375 1.546875 -12.660156 1.546875 -12.921875 C 1.546875 -13.171875 1.640625 -13.390625 1.828125 -13.578125 C 2.015625 -13.765625 2.242188 -13.859375 2.515625 -13.859375 C 2.796875 -13.859375 3.03125 -13.765625 3.21875 -13.578125 C 3.40625 -13.398438 3.5 -13.1875 3.5 -12.9375 C 3.5 -12.664062 3.40625 -12.4375 3.21875 -12.25 C 3.03125 -12.0625 2.796875 -11.96875 2.515625 -11.96875 Z M 2.515625 -11.96875 "/></g></g></g><g fill="#49443a" fill-opacity="1"><g transform="translate(653.897153, 467.975492)"><g><path d="M 1.84375 -13.859375 L 3.171875 -13.859375 L 3.171875 0 L 1.84375 0 Z M 1.84375 -13.859375 "/></g></g></g><g fill="#49443a" fill-opacity="1"><g transform="translate(661.678706, 467.975492)"><g><path d="M 1.84375 -9.828125 L 3.171875 -9.828125 L 3.171875 0 L 1.84375 0 Z M 2.515625 -11.96875 C 2.242188 -11.96875 2.015625 -12.0625 1.828125 -12.25 C 1.640625 -12.4375 1.546875 -12.660156 1.546875 -12.921875 C 1.546875 -13.171875 1.640625 -13.390625 1.828125 -13.578125 C 2.015625 -13.765625 2.242188 -13.859375 2.515625 -13.859375 C 2.796875 -13.859375 3.03125 -13.765625 3.21875 -13.578125 C 3.40625 -13.398438 3.5 -13.1875 3.5 -12.9375 C 3.5 -12.664062 3.40625 -12.4375 3.21875 -12.25 C 3.03125 -12.0625 2.796875 -11.96875 2.515625 -11.96875 Z M 2.515625 -11.96875 "/></g></g></g><g fill="#49443a" fill-opacity="1"><g transform="translate(669.460264, 467.975492)"><g><path d="M 10.40625 -4.5 L 2.1875 -4.5 C 2.257812 -3.476562 2.648438 -2.648438 3.359375 -2.015625 C 4.066406 -1.390625 4.960938 -1.078125 6.046875 -1.078125 C 6.660156 -1.078125 7.222656 -1.1875 7.734375 -1.40625 C 8.242188 -1.625 8.6875 -1.945312 9.0625 -2.375 L 9.796875 -1.515625 C 9.367188 -0.992188 8.828125 -0.59375 8.171875 -0.3125 C 7.515625 -0.0390625 6.796875 0.09375 6.015625 0.09375 C 5.003906 0.09375 4.109375 -0.117188 3.328125 -0.546875 C 2.554688 -0.972656 1.953125 -1.566406 1.515625 -2.328125 C 1.078125 -3.085938 0.859375 -3.945312 0.859375 -4.90625 C 0.859375 -5.863281 1.066406 -6.722656 1.484375 -7.484375 C 1.898438 -8.242188 2.472656 -8.832031 3.203125 -9.25 C 3.929688 -9.675781 4.75 -9.890625 5.65625 -9.890625 C 6.5625 -9.890625 7.375 -9.675781 8.09375 -9.25 C 8.820312 -8.832031 9.390625 -8.242188 9.796875 -7.484375 C 10.210938 -6.734375 10.421875 -5.875 10.421875 -4.90625 Z M 5.65625 -8.75 C 4.707031 -8.75 3.910156 -8.445312 3.265625 -7.84375 C 2.628906 -7.25 2.269531 -6.460938 2.1875 -5.484375 L 9.15625 -5.484375 C 9.0625 -6.460938 8.691406 -7.25 8.046875 -7.84375 C 7.410156 -8.445312 6.613281 -8.75 5.65625 -8.75 Z M 5.65625 -8.75 "/></g></g></g><g fill="#49443a" fill-opacity="1"><g transform="translate(683.491647, 467.975492)"><g><path d="M 6.859375 -9.890625 C 8.085938 -9.890625 9.066406 -9.53125 9.796875 -8.8125 C 10.523438 -8.101562 10.890625 -7.0625 10.890625 -5.6875 L 10.890625 0 L 9.5625 0 L 9.5625 -5.5625 C 9.5625 -6.582031 9.304688 -7.359375 8.796875 -7.890625 C 8.285156 -8.429688 7.554688 -8.703125 6.609375 -8.703125 C 5.546875 -8.703125 4.707031 -8.382812 4.09375 -7.75 C 3.476562 -7.125 3.171875 -6.257812 3.171875 -5.15625 L 3.171875 0 L 1.84375 0 L 1.84375 -9.828125 L 3.125 -9.828125 L 3.125 -8.015625 C 3.476562 -8.609375 3.972656 -9.066406 4.609375 -9.390625 C 5.253906 -9.722656 6.003906 -9.890625 6.859375 -9.890625 Z M 6.859375 -9.890625 "/></g></g></g></svg>